english/spanish


This charming animated adventure follows a young polar bear, Lars, as he befriends Robbie, a seal. Together, these two form a friendship that proves different breeds of animals can get along perfectly well. And when a dangerous monster hits the waters and begins stealing all the fish, Lars and Robbie must team up with a variety of other animals to ensure that their friends and family won't be harmed. Based on the popular children's book series, 'The Little Polar Bear' is perfect family entertainment.

Format : MPEG-4
Format profile : Base Media / Version 2
Codec ID : mp42
File size : 1.26 GiB
Duration : 1h 17mn
Overall bit rate : 2 325 Kbps
Encoded date : UTC 2009-10-21 06:59:42
Tagged date : UTC 2009-10-21 11:48:38
Writing application : HandBrake 0.9.3 2008112300

Video
ID : 1
Format : AVC
Format/Info : Advanced Video Codec
Format profile : Main@L4.0
Format settings, CABAC : Yes
Format settings, ReFrames : 3 frames
Codec ID : avc1
Codec ID/Info : Advanced Video Coding
Duration : 1h 17mn
Bit rate mode : Variable
Bit rate : 2 000 Kbps
Width : 720 pixels
Height : 552 pixels
Display aspect ratio : 1.855
Frame rate mode : Variable
Frame rate : 25.000 fps
Minimum frame rate : 12.500 fps
Maximum frame rate : 27.444 fps
Resolution : 24 bits
Colorimetry : 4:2:0
Scan type : Progressive
Bits/(Pixel*Frame) : 0.201
Stream size : 1.08 GiB (86%)
Writing library : x264 core 65


Audio #1
ID : 2
Format : AAC
Format/Info : Advanced Audio Codec
Format version : Version 4
Format profile : LC
Format settings, SBR : No
Codec ID : 40
Duration : 1h 17mn
Bit rate mode : Variable
Bit rate : 160 Kbps
Maximum bit rate : 213 Kbps
Channel(s) : 2 channels
Channel positions : L R
Sampling rate : 48.0 KHz
Resolution : 16 bits
Stream size : 88.7 MiB (7%)
Language : English
Encoded date : UTC 2009-10-21 06:59:42
Tagged date : UTC 2009-10-21 11:48:26

Audio #2
ID : 3
Format : AAC
Format/Info : Advanced Audio Codec
Format version : Version 4
Format profile : LC
Format settings, SBR : No
Codec ID : 40
Duration : 1h 17mn
Bit rate mode : Variable
Bit rate : 160 Kbps
Maximum bit rate : 210 Kbps
Channel(s) : 2 channels
Channel positions : L R
Sampling rate : 48.0 KHz
Resolution : 16 bits
Stream size : 88.7 MiB (7%)
Language : Spanish
Encoded date : UTC 2009-10-21 06:59:42 